<svg xmlns="http://www.w3.org/2000/svg" version="1.1" xmlns:xlink="http://www.w3.org/1999/xlink" xmlns:svgjs="http://svgjs.dev/svgjs" width="1000" height="623" viewBox="0 0 1000 623"><g transform="matrix(1,0,0,1,-0.6060606060606233,0.2522267206477409)"><svg viewBox="0 0 396 247" data-background-color="#ffffff" preserveAspectRatio="xMidYMid meet" height="623" width="1000" xmlns="http://www.w3.org/2000/svg" xmlns:xlink="http://www.w3.org/1999/xlink"><g id="tight-bounds" transform="matrix(1,0,0,1,0.2400000000000091,-0.09999999999999432)"><svg viewBox="0 0 395.52 247.2" height="247.2" width="395.52"><g><svg></svg></g><g><svg viewBox="0 0 395.52 247.2" height="247.2" width="395.52"><g transform="matrix(1,0,0,1,75.54432000000001,52.310213724355236)"><svg viewBox="0 0 244.43135999999996 142.57957255128952" height="142.57957255128952" width="244.43135999999996"><g><svg viewBox="0 0 244.43135999999996 142.57957255128952" height="142.57957255128952" width="244.43135999999996"><g><svg viewBox="0 0 244.43136 142.57957255128954" height="142.57957255128952" width="244.43135999999996"><g><svg viewBox="0 0 244.43136 142.57957255128954" height="142.57957255128954" width="244.43136"><g><svg viewBox="0 0 244.43136 142.57957255128954" height="142.57957255128954" width="244.43136"><g><svg viewBox="0 0 244.43136 83.76188714828898" height="83.76188714828898" width="244.43136"><g transform="matrix(1,0,0,1,0,0)"><svg width="244.43136" viewBox="3.450000047683716 -35.29999923706055 105.19000244140625 36.04999923706055" height="83.76188714828898" data-palette-color="#30017e"><path d="M18.8-18.3Q22.2-17.6 24.25-15.7 26.3-13.8 26.3-9.95L26.3-9.95Q26.3-4.75 22.73-2.38 19.15 0 12.9 0L12.9 0 3.45 0 3.45-34.55 11.7-34.55Q18.1-34.55 21.53-32.38 24.95-30.2 24.95-25.75L24.95-25.75Q24.95-22.75 23.23-20.88 21.5-19 18.8-18.3L18.8-18.3ZM12.3-29.8L9.95-29.8 9.95-20.3 12.9-20.3Q15.6-20.3 17-21.55 18.4-22.8 18.4-25.2L18.4-25.2Q18.4-27.65 16.93-28.73 15.45-29.8 12.3-29.8L12.3-29.8ZM12.95-4.85Q16.2-4.85 17.9-6.05 19.6-7.25 19.6-10.2L19.6-10.2Q19.6-15.8 13.35-15.8L13.35-15.8 9.95-15.8 9.95-4.85 12.95-4.85ZM31.15-34.55L37.65-34.55 37.65-5.3 49.95-5.3 49.25 0 31.15 0 31.15-34.55ZM66.2-35.3Q72.7-35.3 76.34-30.73 80-26.15 80-17.3L80-17.3Q80-8.55 76.34-3.9 72.7 0.75 66.2 0.75L66.2 0.75Q59.75 0.75 56.1-3.85 52.45-8.45 52.45-17.25L52.45-17.25Q52.45-25.95 56.1-30.63 59.75-35.3 66.2-35.3L66.2-35.3ZM66.2-30.35Q62.75-30.35 61-27.3 59.25-24.25 59.25-17.25L59.25-17.25Q59.25-10.3 61.02-7.25 62.8-4.2 66.2-4.2L66.2-4.2Q69.75-4.2 71.47-7.23 73.2-10.25 73.2-17.3L73.2-17.3Q73.2-24.25 71.47-27.3 69.75-30.35 66.2-30.35L66.2-30.35ZM98.34-35.3Q101.44-35.3 103.87-34.27 106.29-33.25 108.44-31.25L108.44-31.25 105.09-27.8Q103.39-29.2 101.92-29.8 100.44-30.4 98.54-30.4L98.54-30.4Q94.94-30.4 92.77-27.33 90.59-24.25 90.59-17.3L90.59-17.3Q90.59-12.4 91.37-9.53 92.14-6.65 93.69-5.43 95.24-4.2 97.64-4.2L97.64-4.2Q100.24-4.2 102.39-5.5L102.39-5.5 102.39-14.7 97.89-14.7 97.24-19.5 108.64-19.5 108.64-2.65Q106.24-1.05 103.44-0.15 100.64 0.75 97.74 0.75L97.74 0.75Q83.84 0.75 83.84-17.3L83.84-17.3Q83.84-23.15 85.77-27.2 87.69-31.25 90.97-33.27 94.24-35.3 98.34-35.3L98.34-35.3Z" opacity="1" transform="matrix(1,0,0,1,0,0)" fill="#30017e" class="undefined-text-0" data-fill-palette-color="primary" id="text-0"></path></svg></g></svg></g><g transform="matrix(1,0,0,1,0,103.53605841870845)"><svg viewBox="0 0 244.43136 39.043514132581095" height="39.043514132581095" width="244.43136"><g transform="matrix(1,0,0,1,0,0)"><svg width="244.43136" viewBox="0.699999988079071 -36 283.5699768066406 45.29999923706055" height="39.043514132581095" data-palette-color="#596bf3"><path d="M40.4-34.3L45.15-34.3 35.1 0 30.1 0 23.1-24.8 22.75-24.8 15.5 0 10.5 0 0.7-34.3 5.95-34.3 13.2-8.45 13.5-8.45 20.8-34.3 25.55-34.3 32.8-8.45 33.1-8.45 40.4-34.3ZM60.45-26.05Q64-26.05 66-23.78 68-21.5 68-18.05L68-18.05 67.85-16.15 63.7-16.15 63.7-17.25Q63.7-18.75 62.95-19.9 62.2-21.05 61.05-21.68 59.9-22.3 58.75-22.3L58.75-22.3Q56.35-22.3 55-20.4 53.65-18.5 53.65-15.25L53.65-15.25 53.65 0 48.95 0 48.95-25.55 52.3-25.55 53-21.75Q53.3-22.75 54.35-23.75 55.4-24.75 56.97-25.4 58.55-26.05 60.45-26.05L60.45-26.05ZM73.35-36L78.25-36 78.25-31.65 73.35-31.65 73.35-36ZM73.45-25.55L78.15-25.55 78.15 0 73.45 0 73.45-25.55ZM91.94-33.7L91.94-25.55 97.89-25.55 97.89-21.8 91.94-21.8 91.94-6.55Q91.94-4.75 92.64-3.95 93.34-3.15 94.79-3.15L94.79-3.15Q96.09-3.15 97.89-3.9L97.89-3.9 97.89-0.4Q96.09 0.5 93.24 0.5L93.24 0.5Q90.29 0.5 88.77-1.25 87.24-3 87.24-6.8L87.24-6.8 87.24-21.8 84.44-21.8 84.44-25.55 87.39-25.55 88.99-33.7 91.94-33.7ZM113.99-26.05Q117.14-26.05 119.57-24.73 121.99-23.4 123.34-20.95 124.69-18.5 124.69-15.25L124.69-15.25 124.69-11.7 106.84-11.7Q106.94-7.65 108.74-5.45 110.54-3.25 114.09-3.25L114.09-3.25Q117.24-3.25 118.74-5.1 120.24-6.95 120.24-9.5L120.24-9.5 124.69-9.5Q124.69-6.5 123.32-4.25 121.94-2 119.52-0.75 117.09 0.5 113.99 0.5L113.99 0.5 113.79 0.5Q108.39 0.5 105.27-2.98 102.14-6.45 102.14-12.25L102.14-12.25 102.14-13.25Q102.14-17.05 103.54-19.95 104.94-22.85 107.54-24.45 110.14-26.05 113.64-26.05L113.64-26.05 113.99-26.05ZM113.74-22.3Q110.89-22.3 109.12-20.55 107.34-18.8 106.94-15.35L106.94-15.35 120.04-15.35 120.04-15.95Q120.04-18.8 118.32-20.55 116.59-22.3 113.74-22.3L113.74-22.3ZM144.19-34.3L165.79-34.3 165.14-29.85 149.09-29.85 149.09-19.4 163.09-19.4 163.09-14.95 149.09-14.95 149.09 0 144.19 0 144.19-34.3ZM181.43-26.05Q184.98-26.05 186.98-23.78 188.98-21.5 188.98-18.05L188.98-18.05 188.83-16.15 184.68-16.15 184.68-17.25Q184.68-18.75 183.93-19.9 183.18-21.05 182.03-21.68 180.88-22.3 179.73-22.3L179.73-22.3Q177.33-22.3 175.98-20.4 174.63-18.5 174.63-15.25L174.63-15.25 174.63 0 169.93 0 169.93-25.55 173.28-25.55 173.98-21.75Q174.28-22.75 175.33-23.75 176.38-24.75 177.96-25.4 179.53-26.05 181.43-26.05L181.43-26.05ZM204.68-26.05Q207.83-26.05 210.25-24.73 212.68-23.4 214.03-20.95 215.38-18.5 215.38-15.25L215.38-15.25 215.38-11.7 197.53-11.7Q197.63-7.65 199.43-5.45 201.23-3.25 204.78-3.25L204.78-3.25Q207.93-3.25 209.43-5.1 210.93-6.95 210.93-9.5L210.93-9.5 215.38-9.5Q215.38-6.5 214-4.25 212.63-2 210.21-0.75 207.78 0.5 204.68 0.5L204.68 0.5 204.48 0.5Q199.08 0.5 195.96-2.98 192.83-6.45 192.83-12.25L192.83-12.25 192.83-13.25Q192.83-17.05 194.23-19.95 195.63-22.85 198.23-24.45 200.83-26.05 204.33-26.05L204.33-26.05 204.68-26.05ZM204.43-22.3Q201.58-22.3 199.81-20.55 198.03-18.8 197.63-15.35L197.63-15.35 210.73-15.35 210.73-15.95Q210.73-18.8 209-20.55 207.28-22.3 204.43-22.3L204.43-22.3ZM232.48-26.05Q235.63-26.05 238.05-24.73 240.48-23.4 241.83-20.95 243.18-18.5 243.18-15.25L243.18-15.25 243.18-11.7 225.33-11.7Q225.43-7.65 227.23-5.45 229.03-3.25 232.58-3.25L232.58-3.25Q235.73-3.25 237.23-5.1 238.73-6.95 238.73-9.5L238.73-9.5 243.18-9.5Q243.18-6.5 241.8-4.25 240.43-2 238-0.75 235.58 0.5 232.48 0.5L232.48 0.5 232.28 0.5Q226.88 0.5 223.75-2.98 220.63-6.45 220.63-12.25L220.63-12.25 220.63-13.25Q220.63-17.05 222.03-19.95 223.43-22.85 226.03-24.45 228.63-26.05 232.13-26.05L232.13-26.05 232.48-26.05ZM232.23-22.3Q229.38-22.3 227.6-20.55 225.83-18.8 225.43-15.35L225.43-15.35 238.53-15.35 238.53-15.95Q238.53-18.8 236.8-20.55 235.08-22.3 232.23-22.3L232.23-22.3ZM250.23-36L254.93-36 254.93 0 250.23 0 250.23-36ZM284.27-25.55L274.72-1Q273.02 3.2 271.57 5.43 270.12 7.65 268.62 8.47 267.12 9.3 265.12 9.3L265.12 9.3Q263.27 9.3 261.62 8.6L261.62 8.6 261.62 4.75Q263.27 5.45 264.12 5.45L264.12 5.45Q266.17 5.45 267.55 4.08 268.92 2.7 269.82-0.25L269.82-0.25 259.87-25.55 264.87-25.55 272.22-6.7 272.42-6.7 279.67-25.55 284.27-25.55Z" opacity="1" transform="matrix(1,0,0,1,0,0)" fill="#596bf3" class="undefined-text-1" data-fill-palette-color="secondary" id="text-1"></path></svg></g></svg></g></svg></g></svg></g></svg></g></svg></g></svg></g><path d="M144.679 46.31L144.679 0 391.879 0 391.879 247.2 144.679 247.2 144.679 200.89 152.233 200.89 152.233 239.646 384.325 239.646 384.325 7.554 152.233 7.554 152.233 46.31Z" fill="#30017e" stroke="transparent" data-fill-palette-color="primary"></path></svg></g><defs></defs></svg><rect width="395.52" height="247.2" fill="none" stroke="none" visibility="hidden"></rect></g></svg></g></svg>